<svg id="Layer_1" data-name="Layer 1" xmlns="http://www.w3.org/2000/svg" viewBox="0 0 500 500"><defs><style>.cls-1{fill:#95dae5;}.cls-2{fill:#fff;}.cls-3{fill:#5da9e9;}</style></defs><title>textpositive_logo</title><circle class="cls-1" cx="250" cy="250" r="250"/><rect class="cls-2" x="85" y="90" width="250" height="120" rx="20" ry="20"/><rect class="cls-2" x="175" y="240" width="250" height="120" rx="20" ry="20"/><path class="cls-2" d="M260,310V250H200V370A60,60,0,0,1,260,310Z" transform="translate(-100 -100)"/><path class="cls-2" d="M450,400v60a60,60,0,0,1,60,60V400Z" transform="translate(-100 -100)"/><rect class="cls-1" x="292.5" y="102.5" width="15" height="45"/><rect class="cls-1" x="277.5" y="118" width="45" height="15"/><rect class="cls-1" x="202.5" y="252.5" width="15" height="45"/><rect class="cls-1" x="187.5" y="268" width="45" height="15"/><path class="cls-3" d="M429.2,195.92A19.93,19.93,0,0,1,435,210v80a20,20,0,0,1-20,20H260a60,60,0,0,0-59.92,57l75,75c-.06-.65-.1-1.31-.1-2V360a20,20,0,0,1,20-20H505a20,20,0,0,1,20,20v80a20,20,0,0,1-15,19.34V520a60,60,0,0,0-60-60H295a19.91,19.91,0,0,1-13-4.8L417.57,590.75c100.25-28.08,175-117.09,181.89-224.57Z" transform="translate(-100 -100)"/></svg>