<svg id="Layer_1" data-name="Layer 1" xmlns="http://www.w3.org/2000/svg" viewBox="0 0 500 500"><defs><style>.cls-1{fill:#95dae5;}.cls-2{fill:#fff;}.cls-3{fill:#5da9e9;}</style></defs><title>textpositive_logo</title><circle class="cls-1" cx="250" cy="250" r="250"/><rect class="cls-2" x="85" y="90" width="250" height="120" rx="20" ry="20"/><rect class="cls-2" x="175" y="240" width="250" height="120" rx="20" ry="20"/><path class="cls-2" d="M260,310V250H200V370A60,60,0,0,1,260,310Z" transform="translate(-100 -100)"/><path class="cls-2" d="M450,400v60a60,60,0,0,1,60,60V400Z" transform="translate(-100 -100)"/><rect class="cls-1" x="292.5" y="102.5" width="15" height="45"/><rect class="cls-1" x="277.5" y="118" width="45" height="15"/><rect class="cls-1" x="202.5" y="252.5" width="15" height="45"/><rect class="cls-1" x="187.5" y="268" width="45" height="15"/><path class="cls-3" d="M430.88,199.3A19.88,19.88,0,0,1,434,210v80a20,20,0,0,1-20,20H259a60,60,0,0,0-57.77,43.81L274,426.58V360a20,20,0,0,1,20-20H504a20,20,0,0,1,20,20v80a20,20,0,0,1-15,19.34V520a60,60,0,0,0-60-60H294a19.92,19.92,0,0,1-6.78-1.21L418.59,590.17c99-28.65,172.74-116.87,179.83-223.33Z" transform="translate(-100 -100)"/></svg>